<svg xmlns="http://www.w3.org/2000/svg" viewBox="0 0 1712.77 331.52"><title>beagleboard-logo</title><path d="M281.63,125.48c0-9.63,6-16.06,14.45-16.06s14.45,6.43,14.45,16.06v39.34a41.82,41.82,0,0,1,27.5-10c31.11,0,46.56,29.1,46.56,57.2,0,27.3-18.46,54.4-47.57,54.4-9.83,0-21.07-4.42-26.49-13.25-1.8,7.63-6.42,12-14.45,12-8.43,0-14.45-6.42-14.45-16.06Zm51.58,114.4c15.05,0,22.48-15.65,22.48-29.1,0-13.65-7.43-29.5-22.48-29.5-15.45,0-22.68,14.45-22.68,28.5S317.36,239.88,333.21,239.88Z" fill="#a97f2c" stroke="#231f20" stroke-width="7"/><path d="M417.11,220.21c2,14.25,13.85,20.88,27.3,20.88,14.85,0,25.09-11.64,32.72-11.64,6.22,0,11.84,6.22,11.84,12.44,0,12.44-25.69,24.49-47.17,24.49-32.51,0-54.19-23.69-54.19-55.6,0-29.3,21.28-56,51.78-56,31.31,0,52,28.5,52,52.59,0,8.63-3.82,12.84-12.65,12.84ZM462.47,201c-1.6-12.65-9.63-22.08-23.08-22.08-12.84,0-21.47,9.83-22.88,22.08Z" fill="#a97f2c" stroke="#231f20" stroke-width="7"/><path d="M598.36,246.3c0,7.43,0,18.87-13.85,18.87-8.43,0-11.84-4.62-13.85-12.24-7.43,8.83-16.46,13.45-27.5,13.45-27.09,0-47.76-23.09-47.76-55.6,0-31.71,21.27-56,47.76-56,10.64,0,21.08,4.22,27.5,13.25a13.71,13.71,0,0,1,13.85-12c13.85,0,13.85,11.44,13.85,18.86Zm-51.18-6.42c15.05,0,22.28-15.25,22.28-29.1s-7-29.5-22.28-29.5c-15.86,0-22.88,15.65-22.88,29.5S531.52,239.88,547.18,239.88Z" fill="#a97f2c" stroke="#231f20" stroke-width="7"/><path d="M707.56,255.54c0,34.72-22.68,52.18-55.59,52.18-11.85,0-45.57-5.82-45.57-21.68,0-5.41,6-12.64,11.65-12.64,9.23,0,19.46,9,36.12,9,14.05,0,24.49-8.23,24.49-22.88v-6.82h-.4c-6,8.83-15.86,13.65-29.1,13.65-30.31,0-44.56-26.7-44.56-55.4,0-29.1,18.46-56.2,47.57-56.2,9.83,0,21.07,4.42,26.49,13.25,1.81-7.63,6.42-12,14.45-12,8.43,0,14.45,6.42,14.45,16ZM656,181.28c-15.05,0-22.48,15.65-22.48,29.1,0,15.45,7.43,29.5,22.48,29.5,15.45,0,22.68-14.45,22.68-28.5S671.84,181.28,656,181.28Z" fill="#a97f2c" stroke="#231f20" stroke-width="7"/><path d="M716.62,125.48c0-9.63,6-16.06,14.45-16.06s14.45,6.43,14.45,16.06V249.11c0,9.64-6,16.06-14.45,16.06s-14.45-6.42-14.45-16.06Z" fill="#a97f2c" stroke="#231f20" stroke-width="7"/><path d="M782.85,220.21c2,14.25,13.85,20.88,27.3,20.88,14.85,0,25.09-11.64,32.71-11.64,6.23,0,11.85,6.22,11.85,12.44,0,12.44-25.7,24.49-47.17,24.49-32.52,0-54.19-23.69-54.19-55.6,0-29.3,21.27-56,51.78-56,31.31,0,52,28.5,52,52.59,0,8.63-3.81,12.84-12.64,12.84ZM828.21,201c-1.6-12.65-9.63-22.08-23.08-22.08-12.84,0-21.48,9.83-22.88,22.08Z" fill="#a97f2c" stroke="#231f20" stroke-width="7"/><path d="M868.35,125.48c0-9.63,6-16.06,14.45-16.06s14.45,6.43,14.45,16.06v39.34a41.82,41.82,0,0,1,27.5-10c31.1,0,46.56,29.1,46.56,57.2,0,27.3-18.47,54.4-47.57,54.4-9.83,0-21.07-4.42-26.49-13.25-1.81,7.63-6.42,12-14.45,12-8.43,0-14.45-6.42-14.45-16.06Zm51.58,114.4c15.05,0,22.48-15.65,22.48-29.1,0-13.65-7.43-29.5-22.48-29.5-15.46,0-22.68,14.45-22.68,28.5S904.07,239.88,919.93,239.88Z" fill="#f26322" stroke="#231f20" stroke-width="7"/><path d="M1080.9,210.78c0,30.11-20.67,55.6-51.78,55.6s-51.78-25.49-51.78-55.6c0-29.3,21.27-56,51.78-56S1080.9,181.48,1080.9,210.78Zm-74.66,0c0,13.85,7.22,29.1,22.88,29.1s22.88-15.25,22.88-29.1-7-29.5-22.88-29.5S1006.24,196.93,1006.24,210.78Z" fill="#f26322" stroke="#231f20" stroke-width="7"/><path d="M1189.89,246.3c0,7.43,0,18.87-13.85,18.87-8.43,0-11.84-4.62-13.85-12.24-7.42,8.83-16.45,13.45-27.49,13.45-27.1,0-47.77-23.09-47.77-55.6,0-31.71,21.27-56,47.77-56,10.63,0,21.07,4.22,27.49,13.25A13.73,13.73,0,0,1,1176,156c13.85,0,13.85,11.44,13.85,18.86Zm-51.18-6.42c15,0,22.28-15.25,22.28-29.1s-7-29.5-22.28-29.5c-15.86,0-22.88,15.65-22.88,29.5S1123.06,239.88,1138.71,239.88Z" fill="#f26322" stroke="#231f20" stroke-width="7"/><path d="M1198,170.44c0-9.64,7.62-14.45,14.85-14.45,7.62,0,14,2.81,14,12h.4c5.42-8,11.24-12,20.27-12,7,0,14,5,14,15.45,0,9.43-8.63,10-17.26,14.05s-17.46,7.83-17.46,19.27v44.35c0,9.64-6,16.06-14.45,16.06S1198,258.75,1198,249.11Z" fill="#f26322" stroke="#231f20" stroke-width="7"/><path d="M1362.32,249.11c0,9.64-6,16.06-14.45,16.06-8,0-12.65-4.41-14.45-12-5.42,8.83-16.66,13.25-26.5,13.25-29.1,0-47.57-27.1-47.57-54.4,0-28.1,15.46-57.2,46.57-57.2a41.84,41.84,0,0,1,27.5,10V125.48c0-9.63,6-16.06,14.45-16.06s14.45,6.43,14.45,16.06Zm-51.58-67.83c-15.06,0-22.48,15.85-22.48,29.5,0,13.45,7.42,29.1,22.48,29.1,15.85,0,22.68-16,22.68-30.1S1326.19,181.28,1310.74,181.28Z" fill="#f26322" stroke="#231f20" stroke-width="7"/><path d="M1390.44,235.07a15.66,15.66,0,1,1-15.66,15.65A15.67,15.67,0,0,1,1390.44,235.07Z" fill="#f26322" stroke="#231f20" stroke-width="7"/><path d="M1512.91,210.78c0,30.11-20.67,55.6-51.78,55.6s-51.79-25.49-51.79-55.6c0-29.3,21.28-56,51.79-56S1512.91,181.48,1512.91,210.78Zm-74.66,0c0,13.85,7.22,29.1,22.88,29.1s22.88-15.25,22.88-29.1-7-29.5-22.88-29.5S1438.25,196.93,1438.25,210.78Z" fill="#f26322" stroke="#231f20" stroke-width="7"/><path d="M1519.75,170.44c0-9.64,7.63-14.45,14.85-14.45,7.63,0,14.05,2.81,14.05,12h.4c5.42-8,11.24-12,20.28-12,7,0,14,5,14,15.45,0,9.43-8.63,10-17.26,14.05s-17.46,7.83-17.46,19.27v44.35c0,9.64-6,16.06-14.45,16.06s-14.45-6.42-14.45-16.06Z" fill="#f26322" stroke="#231f20" stroke-width="7"/><path d="M1684.73,255.54c0,34.72-22.68,52.18-55.59,52.18-11.84,0-45.56-5.82-45.56-21.68,0-5.41,6-12.64,11.64-12.64,9.23,0,19.47,9,36.12,9,14.05,0,24.49-8.23,24.49-22.88v-6.82h-.4c-6,8.83-15.86,13.65-29.1,13.65-30.31,0-44.56-26.7-44.56-55.4,0-29.1,18.47-56.2,47.57-56.2,9.83,0,21.07,4.42,26.49,13.25,1.81-7.63,6.42-12,14.45-12,8.43,0,14.45,6.42,14.45,16Zm-51.58-74.26c-15.05,0-22.48,15.65-22.48,29.1,0,15.45,7.43,29.5,22.48,29.5,15.46,0,22.68-14.45,22.68-28.5S1649,181.28,1633.15,181.28Z" fill="#f26322" stroke="#231f20" stroke-width="7"/><path d="M235.57,129.68C241,100,215.61,76.37,177,63.13,166.6,26.36,143.08,4.5,108.67,4.5c-20,0-37.74,7.84-49.14,20C33.93,26.1,33.75,56.23,11.4,99.31-6.09,133.05,7.67,168,49.88,173.42c-6.59,15.25-10,32.92-10.34,50.77C18.13,199.66,24,174.32,12,175c-15,.83,4.19,54,30.81,83.64A133,133,0,0,0,46.79,273c-9.29,3.21-19,12.84-19,24,0,12.7,8.7,13.88,20,14a20.85,20.85,0,0,0-.59,4.46,10.38,10.38,0,0,0,4,8.59c2.84,2.16,6.87,3.25,12.5,3.46.82,0,1.63,0,2.42,0h0c11.9,0,20.08-3.33,25.25-8A21.22,21.22,0,0,0,98.62,304a15.26,15.26,0,0,0-.42-3.64,17.81,17.81,0,0,1-.35-2,168.68,168.68,0,0,1,28.88-.18c-.14,1-.27,1.77-.38,2.21a14,14,0,0,0-.39,3.36c0,4.91,2.24,10.87,7.6,15.63s13.78,8.16,25.85,8.16h0c.79,0,1.6,0,2.42,0,5.49-.21,9.42-1.24,12.21-3.31a10,10,0,0,0,4-8.33,19.62,19.62,0,0,0-.7-4.87c11.49-.08,20.43-1.13,20.43-14,0-11.16-9.73-20.79-19-24,9.85-30.6,9-66.21-1.72-94.48l-.64-.41a99.8,99.8,0,0,0,29.93-10.82c3.76,6,7.43,11.95,16.11,10.71,13.07-1.87,18.58-21.42,7.38-32.92A47.18,47.18,0,0,0,235.57,129.68Z" fill="#fff" stroke="#231f20" stroke-width="8"/><path d="M237.57,127.68C243,98,217.61,74.37,179,61.13,168.6,24.36,145.08,2.5,110.67,2.5c-20,0-37.74,7.84-49.14,20C35.93,24.1,35.75,54.23,13.4,97.31-4.09,131.05,9.67,166,51.88,171.42c-6.59,15.25-10,32.92-10.34,50.77C20.13,197.66,26,172.32,14,173c-15,.83,4.19,54,30.81,83.64A133,133,0,0,0,48.79,271c-9.29,3.21-19,12.84-19,24,0,12.7,8.7,13.88,20,14a20.85,20.85,0,0,0-.59,4.46,10.38,10.38,0,0,0,4,8.59c2.84,2.16,6.87,3.25,12.5,3.46.82,0,1.63,0,2.42,0h0c11.9,0,20.08-3.33,25.25-8A21.22,21.22,0,0,0,100.62,302a15.26,15.26,0,0,0-.42-3.64,17.81,17.81,0,0,1-.35-2,168.68,168.68,0,0,1,28.88-.18c-.14,1-.27,1.77-.38,2.21a14,14,0,0,0-.39,3.36c0,4.91,2.24,10.87,7.6,15.63s13.78,8.16,25.85,8.16h0c.79,0,1.6,0,2.42,0,5.49-.21,9.42-1.24,12.21-3.31a10,10,0,0,0,4-8.33,19.62,19.62,0,0,0-.7-4.87c11.49-.08,20.43-1.13,20.43-14,0-11.16-9.73-20.79-19-24,9.85-30.6,9-66.21-1.72-94.48l-.64-.41a99.8,99.8,0,0,0,29.93-10.82c3.76,6,7.43,11.95,16.11,10.71,13.07-1.87,18.58-21.42,7.38-32.92A47.18,47.18,0,0,0,237.57,127.68Z" fill="#fff" stroke="#231f20" stroke-width="5"/><path d="M180.76,271c4-2,20,6,19,24s-23,14-23,14l-10-23s-4-44-3-67-15-39-15-39a125.8,125.8,0,0,1,16-1c9,0,14.26-2.48,14.26-2.48s7.74,9.48,8.74,41.48S176.78,273,180.76,271Z" fill="#a97f2c"/><path d="M158.78,23c9,9,21.79,40.45,21.79,40.45s-22.47-2.28-32.12-11.37C142.91,46.84,117,4.12,117,4.12,125,4.12,149.78,14,158.78,23Z" fill="#a97f2c"/><path d="M110.67,2.5s31,46.83,30.68,63.68c-.5,24.7-43.53,18.92-15.57,86.8,7,17-9,31-32,27-10.48-1.82-30,3-30,34s-2,72-2,72l-9,23s-22,3-22-10,6-17,15-24-.94-18.36-.94-18.36S13.78,212,12.78,205s11-16,11-16,14.53,30.41,17.76,33.2S43.78,183,49.78,177s9-151,9-151S63.57,9,110.67,2.5Z" fill="#a97f2c"/><path d="M102.78,127c-40.34,7.18-60.44,50.68-61.24,95.17C20.13,197.66,26,172.32,14,173c-15,.83,4.19,54,30.81,83.64A133,133,0,0,0,48.79,271c-9.29,3.21-19,12.84-19,24,0,13.81,10.29,14,23,14a22,22,0,0,0,15.84-6.89c29.16-8.11,61.16-9.11,92.31,0A22,22,0,0,0,176.78,309c12.7,0,23-.19,23-14,0-11.16-9.73-20.79-19-24,9.85-30.6,9-66.21-1.72-94.48" fill="none" stroke="#231f20" stroke-width="5"/><path d="M64.78,210s-1,65-3,76-24,36,4,37,34-16,32-24-4-68-4-68" fill="#fff"/><path d="M68.11,325.52c-.79,0-1.6,0-2.42,0h0c-5.63-.21-9.66-1.3-12.5-3.46h0a10.38,10.38,0,0,1-4-8.59h0c0-5.11,2.46-10.42,4.84-15.45h0c2.4-5,4.86-9.76,5.31-12.45h0c.45-2.43.9-8.61,1.27-16.19h0c.37-7.61.69-16.75.94-25.56h0c.49-17.6.75-12.84.75-20.22A40.44,40.44,0,0,1,64.78,210s2.49,5,2.49,13.65c0,6.32-.56,23-1.69,46h0c-.38,7.69-.8,13.77-1.35,16.84h0c-.78,4.1-3.38,8.78-5.72,13.71h0c-2.36,4.86-4.38,9.88-4.34,13.29h0a5.35,5.35,0,0,0,2.06,4.63h0c1.54,1.2,4.56,2.25,9.63,2.42h0c.77,0,1.51,0,2.25,0h0c11,0,17.84-3,21.93-6.73h0A16.26,16.26,0,0,0,95.63,302h0a10.28,10.28,0,0,0-.28-2.43h0c-.6-2.46-1-7.6-1.54-14.43h0c-.47-6.78-.91-15-1.28-23h0c-.75-16-.54-12.3-.54-18.79A47.53,47.53,0,0,1,93.78,231,37.86,37.86,0,0,1,97,245c0,7.12-.44-5.66,0,5.3h0c.46,11,1.09,24.45,1.79,34.53h0a119.68,119.68,0,0,0,1.4,13.56h0a15.26,15.26,0,0,1,.42,3.64h0a21.22,21.22,0,0,1-7.21,15.48h0c-5.17,4.7-13.35,8-25.25,8h0Z" fill="#231f20"/><path d="M163.78,210s1,65,3,76,25,36-3,37-35-16-33-24,4-68,4-68" fill="#fff"/><path d="M135.56,317.36c-5.36-4.76-7.6-10.72-7.6-15.63h0a14,14,0,0,1,.39-3.36h0a119.68,119.68,0,0,0,1.4-13.56h0c.47-6.72.9-15,1.28-22.95h0c.75-16,1.25-13.46,1.25-19.34s3.06-11.62,3.06-11.62a38.48,38.48,0,0,1,1.93,11.79c0,6.46-1.12,22.13-2.53,42.46h0c-.49,6.83-.94,12-1.54,14.44h0a8.92,8.92,0,0,0-.25,2.14h0a16.46,16.46,0,0,0,5.93,11.89h0c4.31,3.81,11.38,6.89,22.56,6.9h0c.73,0,1.48,0,2.24,0h0c4.95-.16,7.9-1.17,9.4-2.31h0a4.88,4.88,0,0,0,2-4.33h0c.06-3.36-2.11-8.47-4.65-13.42h0c-2.5-5-5.27-9.79-6.09-14h0c-.54-3.07-1-9.15-1.35-16.84h0c-.37-7.67-.68-16.84-.93-25.67h0c-.51-17.64-.75-19.58-.75-25.83a96.35,96.35,0,0,1,.95-12.54s4.05,7.12,4.05,12.54.13,1,.42,13h0c.28,12,.7,26.85,1.26,38.27h0c.37,7.59.82,13.76,1.27,16.19h0c.45,2.7,3.06,7.59,5.64,12.64h0c2.54,5.12,5.13,10.49,5.18,15.67h0a10,10,0,0,1-4,8.33h0c-2.79,2.07-6.72,3.1-12.21,3.31h0c-.82,0-1.63,0-2.42,0h0c-12.07,0-20.48-3.4-25.85-8.16Z" fill="#231f20"/><path d="M127,176.07c54.32,10,103.81-11.71,110.53-48.39C243,98,217.61,74.37,179,61.13,168.6,24.36,145.08,2.5,110.67,2.5S48.38,25.74,48.38,54.41" fill="none" stroke="#231f20" stroke-width="5"/><path d="M240.39,99.78c1.66,9.76-6.87,19.37-19.07,21.45s-23.44-4.15-25.1-13.91S203.09,88,215.29,85.87,238.72,90,240.39,99.78Z" fill="#231f20" stroke="#231f20" stroke-width="4"/><path d="M103,96.77c21.86,57.92-11.58,75.41-39.34,75.41-51.37,0-69.31-38.16-50.27-74.87,23-44.26,22.5-74.86,50.27-74.86S88.43,58.08,103,96.77Z" fill="#a97f2c"/><path d="M103,96.77c21.86,57.92-11.58,75.41-39.34,75.41-51.37,0-69.31-38.16-50.27-74.87,23-44.26,22.5-74.86,50.27-74.86S88.43,58.08,103,96.77Z" fill="none" stroke="#000" stroke-width="5"/><path d="M231.26,89.15c.94,2.48-4.79,6.94-12.8,10s-15.25,3.49-16.19,1,4.79-6.94,12.8-10S230.32,86.68,231.26,89.15Z" fill="#fff"/><ellipse cx="114.04" cy="57.59" rx="11.72" ry="7.98" fill="#231f20" stroke="#231f20" stroke-width="4"/><path d="M176.55,49.55c0,4.69-2.67,8.48-9.09,8.48s-11.61-3.79-11.61-8.48,5.2-8.48,11.61-8.48S176.55,44.87,176.55,49.55Z" fill="#231f20"/><path d="M113.27,54.05c0,1.65-1.66,3-3.7,3s-3.71-1.34-3.71-3,1.66-3,3.71-3S113.27,52.4,113.27,54.05Z" fill="#fff"/><path d="M165.84,47.42a3.18,3.18,0,1,1-3.14-2.71A3,3,0,0,1,165.84,47.42Z" fill="#fff"/><path d="M161.52,167c33.07,10.23,74.23-.12,75.67-41.74,0,0,.8-8.93-1.41-4.64-10,19.33-33.36,28.06-70.46,32.76-5.23.66-16.39.75-17.08,5.67C147.87,161.71,151.27,163.86,161.52,167Z" fill="#231f20"/><path d="M226.91,139.08c15.18,10.12,11.11,32.68-2.75,35.46-15.51,3.11-16.06-17.89-29.19-20.4,0,0,13.2-2.74,20.33-6.48A46.92,46.92,0,0,0,226.91,139.08Z" fill="#f26322" stroke="#231f20" stroke-width="5"/><path d="M216.89,149.3s10.78,5.91,11.83,20.83c0,0-2.91-8.95-5.29-12.12Z" fill="#a74624"/><path d="M100.88,117.06s10.49,52.5-54,43.5c0,0,24-12,33-19.5S100.88,117.06,100.88,117.06Z" fill="#886327"/><path d="M1703.93,131.13a9,9,0,0,1,4.35,1.15,8.12,8.12,0,0,1,3.3,3.27,8.85,8.85,0,0,1,0,8.83,8.29,8.29,0,0,1-3.27,3.27,8.86,8.86,0,0,1-8.8,0,8.29,8.29,0,0,1-3.27-3.27,8.86,8.86,0,0,1-1.18-4.4,9,9,0,0,1,1.19-4.43,8.2,8.2,0,0,1,3.31-3.27A9,9,0,0,1,1703.93,131.13Zm0,1.47a7.63,7.63,0,0,0-3.63,1,7,7,0,0,0-2.76,2.73,7.52,7.52,0,0,0-1,3.7,7.39,7.39,0,0,0,1,3.66,6.89,6.89,0,0,0,2.73,2.73,7.36,7.36,0,0,0,7.34,0,6.89,6.89,0,0,0,2.73-2.73,7.37,7.37,0,0,0,1-3.66,7.52,7.52,0,0,0-1-3.7,6.84,6.84,0,0,0-2.76-2.73A7.59,7.59,0,0,0,1703.93,132.6Zm-3.88,12.27v-9.52h3.27a7.84,7.84,0,0,1,2.43.27,2.27,2.27,0,0,1,1.19.92,2.4,2.4,0,0,1,.45,1.39,2.53,2.53,0,0,1-.75,1.82,2.93,2.93,0,0,1-2,.86,2.62,2.62,0,0,1,.81.51,10.41,10.41,0,0,1,1.4,1.89l1.16,1.86h-1.87l-.84-1.5a7.79,7.79,0,0,0-1.61-2.22,2,2,0,0,0-1.23-.32h-.9v4Zm1.54-5.36h1.86a3,3,0,0,0,1.82-.4,1.26,1.26,0,0,0,.49-1.05,1.36,1.36,0,0,0-.23-.76,1.46,1.46,0,0,0-.65-.49,4.84,4.84,0,0,0-1.55-.17h-1.74Z" fill="#231f20"/></svg>